<?xml version="1.0" encoding="utf-8"?>
<!-- Generator: Adobe Illustrator 16.0.0, SVG Export Plug-In . SVG Version: 6.00 Build 0)  -->
<!DOCTYPE svg PUBLIC "-//W3C//DTD SVG 1.0//EN" "http://www.w3.org/TR/2001/REC-SVG-20010904/DTD/svg10.dtd">
<svg version="1.0" id="Layer_1" xmlns="http://www.w3.org/2000/svg" xmlns:xlink="http://www.w3.org/1999/xlink" x="0px" y="0px"
	 width="141.733px" height="141.736px" viewBox="0 0 141.733 141.736" enable-background="new 0 0 141.733 141.736"
	 xml:space="preserve">
<circle fill="#FFFFFF" cx="70.866" cy="70.868" r="59.639"/>
<g>
	<path fill="#220F0F" d="M70.839,0C31.746,0,0,31.746,0,70.839c0,39.152,31.746,70.897,70.839,70.897
		c39.147,0,70.895-31.745,70.895-70.897C141.732,31.703,109.986,0,70.839,0L70.839,0z M89.184,70.839H77.548v42.525H61.627V70.839
		h-10.64V56.226l10.64-0.043l-0.044-8.606c0-11.932,3.244-19.241,17.351-19.241h11.721v14.656h-7.354
		c-5.449,0-5.753,2.071-5.753,5.882v7.309h13.191L89.184,70.839z"/>
</g>
</svg>
