<?xml version="1.0" encoding="utf-8"?>
<!-- Generator: Adobe Illustrator 16.0.0, SVG Export Plug-In . SVG Version: 6.00 Build 0)  -->
<!DOCTYPE svg PUBLIC "-//W3C//DTD SVG 1.0//EN" "http://www.w3.org/TR/2001/REC-SVG-20010904/DTD/svg10.dtd">
<svg version="1.0" id="Layer_1" xmlns="http://www.w3.org/2000/svg" xmlns:xlink="http://www.w3.org/1999/xlink" x="0px" y="0px"
	 width="141.732px" height="141.735px" viewBox="0 0 141.732 141.735" enable-background="new 0 0 141.732 141.735"
	 xml:space="preserve">
<circle fill="#FFFFFF" cx="70.866" cy="70.867" r="59.451"/>
<g>
	<path fill="#220F0F" d="M70.857,85.049c7.82,0,14.189-6.355,14.189-14.188c0-3.082-1.004-5.938-2.676-8.268
		c-2.579-3.568-6.774-5.909-11.515-5.909c-4.725,0-8.921,2.327-11.495,5.909c-1.688,2.33-2.677,5.186-2.691,8.268
		C56.67,78.694,63.039,85.049,70.857,85.049L70.857,85.049z"/>
	<path fill="#220F0F" d="M101.842,53.507v-13.66h-1.784l-11.889,0.042l0.056,13.659L101.842,53.507z"/>
	<path fill="#220F0F" d="M70.857,0C31.792,0,0,31.795,0,70.861c0,39.081,31.792,70.874,70.857,70.874
		c39.083,0,70.875-31.793,70.875-70.874C141.732,31.795,109.94,0,70.857,0L70.857,0z M111.166,62.594V95.6
		c0,8.586-6.982,15.566-15.582,15.566H46.135c-8.59,0-15.572-6.98-15.572-15.566V46.149c0-8.6,6.982-15.583,15.572-15.583h49.449
		c8.6,0,15.582,6.983,15.582,15.583V62.594z"/>
	<path fill="#220F0F" d="M92.908,70.861c0,12.155-9.883,22.047-22.052,22.047c-12.151,0-22.032-9.895-22.032-22.047
		c0-2.915,0.586-5.717,1.617-8.268H38.413v33.005c0,4.266,3.453,7.709,7.722,7.709h49.449c4.265,0,7.721-3.443,7.721-7.709V62.594
		H91.278C92.309,65.144,92.908,67.946,92.908,70.861L92.908,70.861z"/>
</g>
</svg>
