<?xml version="1.0" encoding="utf-8"?>
<!-- Generator: Adobe Illustrator 16.0.0, SVG Export Plug-In . SVG Version: 6.00 Build 0)  -->
<!DOCTYPE svg PUBLIC "-//W3C//DTD SVG 1.0//EN" "http://www.w3.org/TR/2001/REC-SVG-20010904/DTD/svg10.dtd">
<svg version="1.0" id="Layer_1" xmlns="http://www.w3.org/2000/svg" xmlns:xlink="http://www.w3.org/1999/xlink" x="0px" y="0px"
	 width="141.729px" height="141.73px" viewBox="0 0 141.729 141.73" enable-background="new 0 0 141.729 141.73"
	 xml:space="preserve">
<circle fill="#FFFFFF" cx="70.865" cy="69.834" r="63.386"/>
<g>
	<path fill="#220F0F" d="M70.871,0C31.732,0,0,31.725,0,70.871c0,39.135,31.732,70.859,70.871,70.859
		c39.135,0,70.858-31.725,70.858-70.859C141.73,31.724,110.006,0,70.871,0L70.871,0z M106.814,78.531
		c3.306,3.229,6.796,6.266,9.763,9.817c1.309,1.578,2.549,3.207,3.497,5.041c1.345,2.605,0.128,5.474-2.209,5.63l-14.521-0.009
		c-3.744,0.312-6.731-1.196-9.246-3.76c-2.01-2.045-3.871-4.228-5.805-6.343c-0.793-0.862-1.621-1.678-2.612-2.321
		c-1.981-1.289-3.701-0.894-4.835,1.176c-1.153,2.103-1.416,4.431-1.528,6.772c-0.156,3.421-1.189,4.318-4.623,4.476
		c-7.343,0.349-14.311-0.764-20.78-4.467c-5.705-3.265-10.132-7.873-13.983-13.09c-7.496-10.16-13.237-21.326-18.399-32.802
		c-1.162-2.584-0.312-3.973,2.541-4.021c4.737-0.093,9.474-0.085,14.217-0.007c1.927,0.028,3.201,1.133,3.943,2.952
		c2.562,6.302,5.697,12.298,9.636,17.856c1.047,1.479,2.117,2.958,3.639,4c1.687,1.152,2.967,0.77,3.759-1.106
		c0.503-1.188,0.724-2.47,0.835-3.745c0.375-4.382,0.427-8.758-0.233-13.125c-0.402-2.727-1.939-4.49-4.658-5.006
		c-1.389-0.263-1.182-0.78-0.509-1.572c1.167-1.367,2.266-2.216,4.453-2.216h16.41c2.585,0.509,3.156,1.671,3.512,4.271
		l0.015,18.229c-0.029,1.005,0.502,3.992,2.314,4.658c1.451,0.475,2.406-0.685,3.277-1.606c3.93-4.17,6.731-9.099,9.238-14.203
		c1.111-2.243,2.067-4.574,2.995-6.904c0.687-1.727,1.763-2.577,3.709-2.541l15.795,0.015c0.467,0,0.941,0.007,1.396,0.085
		c2.661,0.453,3.392,1.598,2.569,4.197c-1.296,4.078-3.815,7.477-6.278,10.889c-2.636,3.646-5.451,7.165-8.064,10.832
		C103.642,73.935,103.832,75.621,106.814,78.531L106.814,78.531z"/>
</g>
</svg>
